PathFileType	4	(X/Y/Z)	S:\OneDrive - The University of Tokyo\ìåëÂéˆã∆\ÉoÉCÉÅÉJ\ë™íË\hirabayashi_2\Trimmed\Trimmed_Trimmed_ShSs3-Bar.trc
DataRate	CameraRate	NumFrames	NumMarkers	Units	OrigDataRate	OrigDataStartFrame	OrigNumFrames
200.00	200.00	      19	12	mm	200.00	1074	      1718
Frame#	Time	BarR0			BarR50			BarR100			BarR130			BarR180			BarR230			BarL0			BarL50			BarL100			BarL130			BarL180			BarL230			
		X1	Y1	Z1	X2	Y2	Z2	X3	Y3	Z3	X4	Y4	Z4	X5	Y5	Z5	X6	Y6	Z6	X7	Y7	Z7	X8	Y8	Z8	X9	Y9	Z9	X10	Y10	Z10	X11	Y11	Z11	X12	Y12	Z12	

1074	5.365	-574.28278	2753.88623	1663.97473	-597.75647	2304.50806	1652.93518	-628.40521	1850.83533	1646.36096	-652.49377	1348.63501	1646.25867	-681.33221	902.24298	1653.50354	-710.31482	454.93091	1663.68726	-1116.50256	2807.04883	1664.33142	-1146.50659	2355.60571	1657.69800	-1179.67932	1905.86621	1651.89282	-1207.45703	1404.70728	1651.90051	-1231.33545	953.27924	1658.05042	-1246.51953	506.95883	1667.32678	
1075	5.370	-574.30341	2753.86987	1663.98743	-597.75800	2304.51270	1652.90454	-628.38293	1850.86011	1646.31116	-652.45880	1348.62537	1646.18445	-681.31787	902.24976	1653.43945	-710.29565	454.95789	1663.69836	-1116.48975	2807.04614	1664.34021	-1146.50195	2355.62695	1657.64185	-1179.69092	1905.89148	1651.81104	-1207.46509	1404.75073	1651.78162	-1231.32617	953.28809	1657.99243	-1246.55225	506.94852	1667.32690	
1076	5.375	-574.28180	2753.86401	1663.97925	-597.74274	2304.47974	1652.85669	-628.38776	1850.84033	1646.23572	-652.41833	1348.62183	1646.12146	-682.46814	902.41351	1653.52612	-710.23346	454.99149	1663.98438	-1116.51697	2807.05151	1664.34680	-1146.50635	2355.62817	1657.57629	-1179.70349	1905.90063	1651.69873	-1207.49023	1404.69556	1651.69543	-1231.34802	953.27386	1657.94751	-1246.54773	506.94931	1667.32422	
1077	5.380	-574.26147	2753.84839	1663.98352	-597.67957	2304.48901	1652.83276	-628.30273	1850.77954	1646.18176	-652.35156	1348.59534	1646.07568	-682.37823	902.42120	1653.49072	-710.22705	454.97900	1663.99133	-1116.54041	2807.01172	1664.35132	-1146.54944	2355.66162	1657.53564	-1179.76233	1905.92065	1651.63867	-1207.53748	1404.69702	1651.61035	-1231.35168	953.29315	1657.88184	-1246.57617	506.94446	1667.33276	
1078	5.385	-574.26093	2753.83203	1663.97876	-597.63824	2304.46948	1652.80322	-628.20166	1850.76697	1646.15552	-652.24255	1348.61694	1646.02136	-682.30298	902.38562	1653.47864	-710.20203	454.96591	1663.98987	-1116.56531	2807.02417	1664.35327	-1146.56165	2355.66211	1657.48523	-1179.80566	1905.92920	1651.56152	-1207.60071	1404.68701	1651.54211	-1231.38843	953.27979	1657.82141	-1246.58398	506.92065	1667.33142	
1079	5.390	-574.23657	2753.82422	1663.98474	-597.56360	2304.44751	1652.76099	-628.14093	1850.70361	1646.13831	-652.17072	1348.60901	1645.98706	-682.26489	902.41058	1653.41162	-710.18463	454.96201	1663.98572	-1116.58240	2806.99146	1664.36646	-1146.59680	2355.69702	1657.40881	-1179.87793	1905.93115	1651.48828	-1207.66125	1404.66028	1651.48755	-1231.45386	953.24854	1657.77197	-1246.57874	506.93668	1667.33081	
1080	5.395	-574.22083	2753.78198	1663.99048	-597.48676	2304.38843	1652.69324	-628.05658	1850.68164	1646.09338	-652.09918	1348.59143	1645.94714	-682.18024	902.37866	1653.41479	-710.16205	454.91562	1663.98047	-1116.61682	2806.97900	1664.35864	-1146.63232	2355.68433	1657.38879	-1179.90503	1905.93530	1651.44812	-1207.72339	1404.63940	1651.41821	-1231.48389	953.28418	1657.73193	-1246.59802	506.92123	1667.34070	
1081	5.400	-574.19568	2753.76245	1664.00354	-597.46301	2304.37524	1652.69800	-627.96295	1850.62415	1646.07153	-652.04102	1348.60144	1645.93152	-682.13220	902.32715	1653.38660	-710.14014	454.92624	1663.98145	-1116.61084	2806.95850	1664.35828	-1146.68311	2355.68604	1657.35083	-1179.96204	1905.96655	1651.40710	-1207.76294	1404.64429	1651.37244	-1231.53857	953.25098	1657.69165	-1246.59802	506.92578	1667.32983	
1082	5.405	-574.18628	2753.78052	1663.99304	-597.41278	2304.36060	1652.67651	-627.93011	1850.60156	1646.05151	-651.99921	1348.60266	1645.92078	-682.09711	902.34167	1653.38623	-710.12006	454.90509	1663.96912	-1116.63916	2806.95825	1664.34094	-1146.71289	2355.69897	1657.32214	-1179.96057	1905.93115	1651.38550	-1207.78992	1404.63318	1651.34265	-1231.55017	953.24445	1657.67554	-1246.60144	506.91840	1667.32788	
1083	5.410	-574.20056	2753.73169	1663.99316	-597.43231	2304.35620	1652.64221	-627.91486	1850.61401	1646.00269	-652.01282	1348.59558	1645.90649	-682.09070	902.33490	1653.36987	-710.14264	454.90710	1663.96631	-1116.64697	2806.93921	1664.35120	-1146.70239	2355.69604	1657.31384	-1179.98376	1905.94739	1651.36230	-1207.79382	1404.61157	1651.33215	-1231.56238	953.24615	1657.65784	-1246.60083	506.91751	1667.33936	
1084	5.415	-574.19391	2753.76807	1664.00049	-597.43475	2304.38428	1652.67651	-627.94604	1850.62708	1646.02039	-652.03198	1348.60083	1645.89819	-682.10840	902.34912	1653.36316	-710.12640	454.89859	1663.97461	-1116.62878	2806.93213	1664.33398	-1146.69055	2355.68188	1657.31555	-1179.95728	1905.90393	1651.35852	-1207.79285	1404.59338	1651.32141	-1231.56128	953.25433	1657.65515	-1246.62463	506.91589	1667.32166	
1085	5.420	-574.20050	2753.78345	1663.99390	-597.48242	2304.40210	1652.68457	-627.98157	1850.64746	1646.02649	-652.05182	1348.61206	1645.89600	-682.13391	902.36475	1653.37903	-710.12756	454.94507	1663.97803	-1116.59802	2806.92505	1664.33435	-1146.66553	2355.66406	1657.33191	-1179.94470	1905.92249	1651.36890	-1207.77124	1404.59839	1651.32092	-1231.50586	953.24591	1657.64990	-1246.61401	506.91019	1667.32825	
1086	5.425	-574.24750	2753.81030	1663.98596	-597.51660	2304.41602	1652.70618	-628.05750	1850.66345	1646.06763	-652.09375	1348.64490	1645.92407	-682.17358	902.39410	1653.40076	-710.15417	454.94885	1663.98108	-1116.60730	2806.93066	1664.36877	-1146.62097	2355.66260	1657.34766	-1179.89075	1905.91675	1651.38879	-1207.71680	1404.61047	1651.33936	-1231.47522	953.22327	1657.67139	-1246.59778	506.91809	1667.32178	
1087	5.430	-574.24768	2753.80811	1663.99841	-597.56500	2304.44458	1652.72119	-628.13141	1850.72583	1646.08716	-652.15735	1348.61047	1645.94275	-682.23248	902.41937	1653.40503	-710.18268	454.93866	1663.97656	-1116.54370	2806.92432	1664.34741	-1146.54382	2355.63721	1657.34814	-1179.82495	1905.90125	1651.39307	-1207.66455	1404.60364	1651.36145	-1231.45129	953.22955	1657.66919	-1246.58142	506.92172	1667.31812	
1088	5.435	-574.26886	2753.83105	1663.97852	-597.61090	2304.44385	1652.74695	-628.20844	1850.75281	1646.11365	-652.21887	1348.61133	1645.98047	-682.27765	902.38885	1653.41577	-710.20245	454.96643	1663.97168	-1116.53784	2806.93408	1664.34595	-1146.50769	2355.65479	1657.35999	-1179.77319	1905.87378	1651.42053	-1207.62012	1404.59509	1651.38440	-1231.37805	953.25940	1657.69312	-1246.56921	506.91599	1667.31665	
1089	5.440	-574.30011	2753.85742	1663.99060	-597.64746	2304.46948	1652.78735	-628.30597	1850.75452	1646.16797	-652.29047	1348.61719	1646.02112	-682.36609	902.41394	1653.43347	-710.22772	454.95895	1663.98645	-1116.48901	2806.94629	1664.33276	-1146.44678	2355.64185	1657.37732	-1179.73511	1905.88318	1651.44543	-1207.58081	1404.60413	1651.40295	-1231.33154	953.25214	1657.70776	-1246.53430	506.91141	1667.31018	
1090	5.445	-574.26654	2753.82300	1664.00183	-597.67426	2304.44531	1652.79163	-628.31952	1850.80371	1646.19421	-652.36121	1348.59473	1646.04260	-682.41321	902.40302	1653.46765	-710.28937	454.95334	1663.69202	-1116.48706	2806.96021	1664.34839	-1146.44934	2355.63892	1657.42126	-1179.70398	1905.88464	1651.47827	-1207.51611	1404.64172	1651.42383	-1231.27417	953.26971	1657.71814	-1246.50854	506.93442	1667.31995	
1091	5.450	-574.29224	2753.85400	1663.98779	-597.72333	2304.49438	1652.85608	-628.35413	1850.79858	1646.23193	-652.40356	1348.62158	1646.10706	-682.46985	902.38556	1653.53394	-710.29913	454.95303	1663.98364	-1116.54358	2806.97998	1664.35217	-1146.43115	2355.62695	1657.43726	-1179.66528	1905.88550	1651.49561	-1207.49854	1404.64075	1651.44910	-1231.23804	953.28827	1657.75134	-1246.49683	506.94327	1667.31787	
1092	5.455	-574.28375	2753.83936	1663.99377	-597.72491	2304.47925	1652.86157	-628.32629	1850.77576	1646.27368	-652.41162	1348.63477	1646.16125	-681.27216	902.22021	1653.40393	-710.31946	454.93842	1663.68176	-1116.47766	2806.97705	1664.34473	-1146.42163	2355.62817	1657.45020	-1179.66626	1905.88049	1651.52441	-1207.48169	1404.64014	1651.48120	-1231.23474	953.25049	1657.77881	-1246.49744	506.93646	1667.31079	
